<svg id="Capa_1" enable-background="new 0 0 512 512" height="512" viewBox="0 0 512 512" width="512" xmlns="http://www.w3.org/2000/svg"><g><g><path d="m274.516 96.12c7.795 0 13.858-6.811 12.944-14.56l-6.306-53.478c-1.4-11.882-10.287-20.514-21.153-20.582h-30.167c-10.925 0-19.876 8.658-21.282 20.587l-6.306 53.478c-.912 7.742 5.142 14.56 12.944 14.56h3.939c-.04 0-.079-.006-.12-.006h55.507zm-40.362-62.553h43.693l4.303 36.491h-52.299z" fill="#9facba"/><g><path d="m309.754 81.566-6.306-53.478c-1.406-11.93-10.357-20.588-21.282-20.588h-26.105c10.866.068 19.753 8.7 21.154 20.581l6.306 53.478c.912 7.741-5.142 14.56-12.944 14.56h-55.507c.796.01 80.944.006 81.74.006 7.796.001 13.858-6.81 12.944-14.559z" fill="#8d9ca8"/></g><path d="m296.81 96.126c7.796 0 13.857-6.811 12.944-14.56l-6.306-53.478c-1.406-11.93-10.357-20.588-21.282-20.588h-26.105c10.866.068 19.753 8.7 21.154 20.581l6.306 53.478c.912 7.741-5.142 14.56-12.944 14.56z" fill="#8d9ca8"/><path d="m143.326 16.694c-.344-5.174-4.641-9.194-9.826-9.194h-3.939c-9.771 0-16.141 0-25.921 0-5.185 0-9.482 4.02-9.826 9.194l-11.187 168.06h71.886z" fill="#7a8c98"/><path d="m398.49 16.694c-.344-5.174-4.641-9.194-9.826-9.194-5.793 0-23.005 0-29.86 0-5.185 0-9.482 4.02-9.826 9.194l-11.187 168.06h71.886z" fill="#7a8c98"/><path d="m163.022 16.694c-.344-5.174-4.641-9.194-9.826-9.194h-27.574c5.185 0 9.482 4.02 9.826 9.194l11.187 168.06h27.574z" fill="#596c76"/><path d="m418.186 16.694c-.344-5.174-4.641-9.194-9.826-9.194h-27.574c5.185 0 9.482 4.02 9.826 9.194l11.187 168.06h27.574z" fill="#596c76"/><path d="m80.12 482.203c5.2 1.683 10.703 2.601 16.404 2.601h263.803c31.766 0 57.517-28.058 57.517-62.668 0-91.188-4.652-140.011-11.809-235.813-3.342-44.742-23.299-83.959-52.934-110.709-20.48-11.111-42.472-17.227-66.466-17.227h-61.271c-76.801 0-140.743 64.228-146.974 147.632-7.142 95.607-11.809 144.538-11.809 235.813.001 14.351 4.31 28.141 13.539 40.371z" fill="#98bce5"/><path d="m394.861 126.312c-13.191-25.981-28.932-38.951-41.759-50.698-21.198-11.501-43.244-17.227-66.466-17.227-11.163 0-56.356 0-61.271 0-76.801 0-140.743 64.228-146.974 147.632-7.142 95.607-11.809 144.538-11.809 235.813 0 14.351 4.309 28.141 13.538 40.371 13.137 6.251 27.503 9.495 42.051 9.495h237.688c40.459 0 72.293-34.519 69.07-74.816l-18.959-236.981c-2.577-32.207-15.904-55.154-15.109-53.589z" fill="#7bacdf"/><path d="m433.609 206.019c-4.296-57.511-36.036-105.901-80.508-130.405 29.635 26.75 49.591 65.967 52.934 110.709 7.087 94.867 11.809 144.853 11.809 235.813 0 34.611-25.751 62.668-57.517 62.668-11.531 0-252.266 0-263.803 0-5.702 0-11.204-.917-16.404-2.601 10.551 13.63 26.332 22.297 43.979 22.297h263.803c31.766 0 57.517-28.058 57.517-62.668-.001-91.193-4.732-141.078-11.81-235.813z" fill="#5f99d7"/><path d="m325.46 441.462c20.134 0 36.456-16.322 36.456-36.456v-73.456h-231.528v73.456c0 20.134 16.322 36.456 36.456 36.456h178.315z" fill="#99e6fc"/><path d="m357.977 331.55v73.456c0 20.134-16.322 36.456-36.456 36.456h23.635c20.134 0 36.456-16.322 36.456-36.456v-73.456z" fill="#62dbfb"/><path d="m366.456 275.178h-23.635c8.37 0 15.156 6.785 15.156 15.156v36.909c0 22.018-17.849 39.868-39.868 39.868h23.635c22.018 0 39.868-17.849 39.868-39.868v-36.909c0-8.371-6.785-15.156-15.156-15.156z" fill="#dff6fd"/><path d="m361.916 327.242v-36.909c0-8.37-6.785-15.156-15.155-15.156h-201.217c-8.37 0-15.156 6.785-15.156 15.156v36.909c0 22.018 17.849 39.868 39.868 39.868h151.793c22.018 0 39.867-17.849 39.867-39.868z" fill="#f2fbff"/><path d="m383.43 197.404-3.569-41.521c-5.889 0-7.801 0-13.867 0-3.28 0-6.015 2.51-6.296 5.778l-3.58 41.652c-.068.793-.009 1.083.083 1.809h20.145c4.167 0 7.441-3.567 7.084-7.718z" fill="#f2fbff"/><path d="m395.187 203.312-3.58-41.652c-.281-3.268-3.016-5.778-6.296-5.778h-9.449l3.569 41.522c.357 4.151-2.917 7.718-7.083 7.718h-16.145c.568 3.326 3.456 5.909 7 5.909h24.901c4.166 0 7.439-3.567 7.083-7.719z" fill="#dff6fd"/></g><g><path d="m451.82 372.048c-.138-4.14-3.604-7.409-7.745-7.247-4.14.138-7.384 3.605-7.247 7.745.842 25.348 1.09 46.592 1.09 69.286 0 30.42-22.438 55.168-50.017 55.168h-263.802c-27.579 0-50.017-24.748-50.017-55.168 0-78.566 3.46-125.624 9.435-204.138 2.52-33.117 2.618-42.261 6.933-59.457 15.979-63.673 69.572-112.349 134.914-112.349h61.312c71.981.03 133.535 61.456 139.454 140.69 6.542 87.577 7.693 100.801 9.235 131.132.204 4.007 3.517 7.119 7.484 7.119.128 0 .257-.003.387-.01 4.137-.21 7.32-3.734 7.109-7.871-1.548-30.449-2.681-43.451-9.257-131.487-.769-10.294-2.399-20.4-4.832-30.217l-10.587-159.048c-.604-9.082-8.207-16.196-17.309-16.196h-49.556c-9.102 0-16.706 7.114-17.31 16.196l-2.954 44.375c-7.966-3.07-16.17-5.43-24.542-7.051l-3.102-26.311c-1.857-15.766-13.94-27.209-28.729-27.209h-52.333c-14.789 0-26.872 11.443-28.73 27.21l-3.099 26.279c-8.372 1.613-16.574 3.973-24.548 7.049l-2.951-44.341c-.605-9.083-8.208-16.197-17.31-16.197h-49.556c-9.102 0-16.706 7.114-17.31 16.196l-1.842 27.677c-.275 4.133 2.852 7.706 6.985 7.981 4.138.289 7.707-2.853 7.981-6.985l1.842-27.677c.082-1.229 1.111-2.192 2.343-2.192h49.556c1.232 0 2.261.963 2.343 2.192l3.323 49.917c-25.512 13.196-48.745 34.667-65.083 63.047l3.352-50.364c.275-4.133-2.853-7.706-6.985-7.981-4.126-.29-7.707 2.852-7.981 6.985l-6.41 96.308c-4.533 18.303-4.696 28.634-7.193 61.452-6.02 79.097-9.478 126.285-9.478 205.276 0 38.69 29.167 70.168 65.017 70.168h263.825.008c35.835-.02 64.987-31.489 64.987-70.168-.002-23.273-.265-44.613-1.1-69.784zm-212.157-321.16 1.158-9.82h30.358l1.158 9.82zm116.798-33.696c.082-1.229 1.111-2.192 2.343-2.192h49.556c1.232 0 2.261.963 2.343 2.192l7.523 113.018c-15.277-26.623-37.692-48.959-65.087-63.092zm-143.105 34.193 2.644-22.419c.954-8.093 6.771-13.966 13.833-13.966h52.333c7.062 0 12.88 5.873 13.834 13.966l2.643 22.419c-3.576-.299-7.629-.459-11.202-.491l-2.146-18.204c-.445-3.776-3.646-6.622-7.448-6.622h-43.693c-3.802 0-7.003 2.846-7.448 6.622l-2.147 18.204c-.164.001-.339.006-.504.008-3.774.033-7.4.207-10.699.483z"/><path d="m402.659 202.67-3.58-41.651c-.619-7.204-6.539-12.637-13.769-12.637h-5.147c-20.024-36.504-56.666-59.756-97.242-59.756h-53.843c-28.12 0-55.076 11.205-75.902 31.551-9.542 9.321-17.46 20.205-23.537 32.35-1.853 3.704-.353 8.21 3.352 10.063 3.716 1.859 8.215.343 10.063-3.352 5.327-10.647 12.259-20.179 20.604-28.33 18.008-17.593 41.241-27.281 65.42-27.281h53.843c24.179 0 47.413 9.688 65.42 27.281 5.489 5.362 10.354 11.34 14.569 17.828-5.766 1.294-10.157 6.138-10.685 12.283l-3.58 41.653c-.732 8.522 6.002 15.859 14.556 15.859h24.901c8.556-.001 15.289-7.338 14.557-15.861zm-39.032.86 3.451-40.148h17.148l3.451 40.148z"/><path d="m389.112 290.334c0-12.493-10.164-22.656-22.656-22.656h-220.913c-12.492 0-22.656 10.163-22.656 22.656v36.908 77.764c0 24.238 19.719 43.957 43.956 43.957h178.313c24.237 0 43.956-19.719 43.956-43.957 0-5.094 0-3.417 0-77.764zm-251.224 0c0-4.222 3.435-7.656 7.656-7.656h220.913c4.221 0 7.656 3.435 7.656 7.656v36.908c0 17.811-14.494 32.368-32.368 32.368h-171.49c-17.987 0-32.368-14.668-32.368-32.368v-36.908zm236.224 114.672c0 15.967-12.99 28.957-28.956 28.957h-178.312c-15.966 0-28.956-12.99-28.956-28.957v-43.13c8.969 8.379 20.605 12.734 32.368 12.734h171.489c11.603 0 23.289-4.254 32.368-12.733v43.129z"/></g></g></svg>