<svg id="Capa_1" enable-background="new 0 0 512 512" height="512" viewBox="0 0 512 512" width="512" xmlns="http://www.w3.org/2000/svg"><g><g><path d="m314.493 201.67c-14.987 2.405-34.362 4.12-59.143 4.12s-44.157-1.716-59.143-4.12c-64.282-10.314-116.487 51.482-95.035 112.95.404 1.158.822 2.325 1.254 3.504 4.244 11.56 5.799 23.924 4.832 36.201-2.535 32.189-.682 98.201 50.187 134.144 11.763 8.312 27.241-3.229 22.746-16.913-14.463-44.03-22.411-114.573 75.159-114.573s89.622 70.543 75.159 114.573c-4.495 13.684 10.982 25.225 22.746 16.913 50.869-35.943 52.722-101.955 50.187-134.144-.967-12.277.589-24.641 4.832-36.201.432-1.178.851-2.346 1.254-3.504 21.452-61.468-30.753-123.264-95.035-112.95z" fill="#d8d8d8"/><path d="m484.331 130.608c0 9.567-4.212 18.649-11.516 24.829-6.647 5.624-16.384 5.624-23.031 0-6.647-5.624-16.384-5.624-23.031 0s-16.384 5.624-23.031 0-16.384-5.624-23.031 0c-6.647 5.624-16.384 5.624-23.031 0s-16.384-5.624-23.031 0-16.384 5.624-23.031 0c-7.303-6.18-11.516-15.262-11.516-24.829v-66.58h184.252v66.58z" fill="#d8d8d8"/><path d="m488.112 20.731h-175.569c-32.697 0-64.055 12.989-87.176 36.109l-5.193 5.193c-11.82 11.82-27.853 18.461-44.569 18.461h-148.639c-10.751.001-19.466 8.716-19.466 19.466v21.324c0 10.751 8.715 19.466 19.466 19.466h148.639c32.931 0 63.891-12.824 87.177-36.109l5.19-5.191c11.821-11.822 27.854-18.464 44.573-18.464h175.567c9.051 0 16.388-7.337 16.388-16.388v-27.479c0-9.051-7.337-16.388-16.388-16.388z" fill="#60d9a7"/><path d="m184.341 382.309c-28.151-28.916-45.544-68.708-45.544-112.639 0-22.57 4.599-44.043 12.879-63.515-41.06 15.744-66.652 62.195-50.504 108.466.404 1.157.822 2.325 1.254 3.504 4.244 11.56 5.799 23.924 4.832 36.201-2.535 32.189-.682 98.201 50.187 134.144 11.763 8.312 27.241-3.229 22.746-16.913-8.957-27.268-15.403-64.696 4.15-89.248z" fill="#cacac8"/><path d="m84.411 80.495h-57.445c-10.751 0-19.466 8.715-19.466 19.465v21.324c0 10.751 8.715 19.466 19.466 19.466h71.796c-9.039-18.23-14.174-38.663-14.351-60.255z" fill="#00cd8c"/></g><g><path d="m117.887 229.172c-3.318-2.481-8.017-1.804-10.499 1.512-18.396 24.588-24.526 55.931-12.003 90.009 3.823 10.413 5.302 21.525 4.396 33.027-4.226 53.69 8.996 109.529 53.336 140.859 17.643 12.465 40.958-4.801 34.199-25.379-8.076-24.586-14.347-58.529 1.643-80.612 11.589-16.005 33.926-24.12 66.391-24.12s54.801 8.115 66.39 24.12c15.99 22.083 9.719 56.026 1.643 80.612-6.756 20.566 16.544 37.85 34.199 25.378 44.344-31.332 57.562-87.176 53.336-140.858-1.344-17.055 2.559-27.661 5.69-36.644 10.911-31.262 4.734-65.083-16.522-90.47-21.39-25.547-53.83-37.643-86.782-32.357-33.583 5.387-82.302 5.391-115.911 0-23.294-3.736-46.837 1.263-66.286 14.081-3.458 2.279-4.414 6.931-2.135 10.39 2.279 3.458 6.93 4.414 10.39 2.135 16.544-10.903 35.789-14.982 55.655-11.795 35.145 5.639 85.473 5.646 120.663 0 27.688-4.445 54.939 5.717 72.905 27.176 17.211 20.555 23.913 48.579 12.647 79.288-4.572 12.456-6.345 25.703-5.269 39.374 6.113 77.637-26.847 113.164-47.038 127.43-5.855 4.139-13.539-1.607-11.292-8.447 24.628-74.977-.444-124.413-82.284-124.413-81.801 0-106.927 49.394-82.285 124.413 2.246 6.839-5.436 12.586-11.292 8.448-20.191-14.267-53.151-49.793-47.038-127.431 1.077-13.671-.696-26.918-5.269-39.374-10.575-28.812-5.668-55.001 9.933-75.853 2.483-3.318 1.806-8.018-1.511-10.499z"/><path d="m188.4 274.914v-14.306c0-4.142-3.358-7.5-7.5-7.5s-7.5 3.358-7.5 7.5v14.306c0 4.142 3.358 7.5 7.5 7.5s7.5-3.358 7.5-7.5z"/><path d="m337.299 274.914v-14.306c0-4.142-3.358-7.5-7.5-7.5s-7.5 3.358-7.5 7.5v14.306c0 4.142 3.358 7.5 7.5 7.5s7.5-3.358 7.5-7.5z"/><path d="m280.632 279.416c2.722-3.123 2.396-7.86-.726-10.582s-7.86-2.397-10.582.726c-7.403 8.493-20.554 8.484-27.949 0-2.722-3.123-7.46-3.448-10.582-.726-3.123 2.722-3.448 7.459-.726 10.582 13.382 15.353 37.198 15.336 50.565 0z"/><path d="m491.832 130.593v-42.413c11.411-1.792 20.168-11.69 20.168-23.598v-27.478c0-13.172-10.716-23.889-23.888-23.889h-61.705c-4.142 0-7.5 3.358-7.5 7.5s3.358 7.5 7.5 7.5h61.705c4.901 0 8.888 3.987 8.888 8.889v27.479c0 4.901-3.987 8.889-8.888 8.889-18.405 0-158.108 0-175.567 0-35.111 0-52.326 23.896-55.066 25.851-21.869 21.869-50.945 33.913-81.873 33.913h-148.64c-6.598 0-11.966-5.368-11.966-11.966v-21.325c0-6.598 5.368-11.966 11.966-11.966h148.639c35.107 0 52.326-23.896 55.066-25.851 21.869-21.869 50.945-33.913 81.873-33.913h83.863c4.142 0 7.5-3.358 7.5-7.5s-3.358-7.5-7.5-7.5h-83.863c-62.332 0-95.029 41.667-97.672 43.499-10.489 10.488-24.434 16.264-39.266 16.264h-148.64c-14.869.001-26.966 12.098-26.966 26.967v21.324c0 14.869 12.097 26.966 26.966 26.966h148.639c34.935 0 67.778-13.604 92.48-38.306 3.421-2.96 10.089-12.216 24.495-17.759v38.423c0 11.797 5.166 22.934 14.172 30.555 9.479 8.021 23.24 8.021 32.72 0 3.865-3.271 9.476-3.271 13.342 0 4.74 4.01 10.55 6.016 16.36 6.016 5.811 0 11.621-2.005 16.361-6.016 3.865-3.271 9.476-3.271 13.342 0 9.479 8.021 23.24 8.021 32.72 0 3.865-3.271 9.477-3.271 13.343 0 9.479 8.021 23.24 8.021 32.72 0 9.006-7.621 14.172-18.758 14.172-30.555zm-15 0c0 7.376-3.229 14.339-8.86 19.104-3.866 3.271-9.478 3.27-13.342 0-9.479-8.021-23.241-8.021-32.721 0-3.866 3.271-9.478 3.27-13.342 0-9.48-8.022-23.241-8.021-32.72 0-3.865 3.271-9.477 3.27-13.343 0-9.478-8.02-23.238-8.024-32.72 0-3.865 3.271-9.477 3.27-13.343 0-5.631-4.765-8.86-11.728-8.86-19.104v-41.894c5.018-.44 8.094-.109 18.712-.228v31.253c0 4.142 3.358 7.5 7.5 7.5s7.5-3.358 7.5-7.5v-31.253h23.942v31.253c0 4.142 3.358 7.5 7.5 7.5s7.5-3.358 7.5-7.5v-31.253h23.943v31.253c0 4.142 3.358 7.5 7.5 7.5s7.5-3.358 7.5-7.5v-31.253h23.942v31.253c0 4.142 3.358 7.5 7.5 7.5s7.5-3.358 7.5-7.5v-31.253h18.712z"/></g></g></svg>