<svg height="512pt" viewBox="-51 0 512 512" width="512pt" xmlns="http://www.w3.org/2000/svg"><path d="m45.304688 504.5c0-88.242188 71.535156-159.773438 159.773437-159.773438 88.242187 0 159.777344 71.53125 159.777344 159.773438zm0 0" fill="#e3aa75"/><path d="m205.078125 344.726562c-31.796875 0-61.421875 9.289063-86.316406 25.300782 25.957031 13.152344 55.285156 20.574218 86.316406 20.574218 31.035156 0 60.363281-7.421874 86.320313-20.574218-24.894532-16.011719-54.519532-25.300782-86.320313-25.300782zm0 0" fill="#d29b6e"/><path d="m230.019531 346.667969c-8.125-1.273438-16.453125-1.941407-24.941406-1.941407-88.238281 0-159.773437 71.53125-159.773437 159.773438h49.882812c0-79.757812 58.4375-145.855469 134.832031-157.832031zm0 0" fill="#d29b6e"/><path d="m402.660156 208.503906c0 18.792969-15.234375 34.023438-34.027344 34.023438-18.792968 0-34.027343-15.230469-34.027343-34.023438 0-18.792968 15.234375-34.027344 34.027343-34.027344 18.792969 0 34.027344 15.234376 34.027344 34.027344zm0 0" fill="#e3aa75"/><path d="m75.554688 208.503906c0 18.792969-15.234376 34.023438-34.027344 34.023438-18.792969 0-34.027344-15.230469-34.027344-34.023438 0-18.792968 15.234375-34.027344 34.027344-34.027344 18.792968 0 34.027344 15.234376 34.027344 34.027344zm0 0" fill="#d29b6e"/><path d="m376.730469 198.949219c0 94.800781-76.851563 171.652343-171.652344 171.652343-94.796875 0-171.648437-76.851562-171.648437-171.652343 0-94.796875 76.851562-171.648438 171.648437-171.648438 94.800781 0 171.652344 76.851563 171.652344 171.648438zm0 0" fill="#f5b97d"/><path d="m82.933594 198.949219c0-86.390625 63.828125-157.867188 146.898437-169.863281-8.085937-1.167969-16.347656-1.785157-24.753906-1.785157-94.796875 0-171.648437 76.851563-171.648437 171.652344s76.851562 171.648437 171.648437 171.648437c8.40625 0 16.667969-.617187 24.753906-1.785156-83.070312-12-146.898437-83.472656-146.898437-169.867187zm0 0" fill="#e3aa75"/><path d="m13.617188 189.035156h382.925781c-5.179688-100.976562-89.222657-181.535156-191.464844-181.535156-102.238281 0-186.285156 80.558594-191.460937 181.535156zm0 0" fill="#b4f09b"/><path d="m229.832031 9.101562c-8.105469-1.050781-16.363281-1.601562-24.753906-1.601562-102.238281 0-186.285156 80.558594-191.460937 181.535156h49.769531c4.753906-92.695312 75.742187-168.171875 166.445312-179.933594zm0 0" fill="#64dca0"/><path d="m25.613281 131.117188h358.933594c4.578125 0 7.664063-4.703126 5.824219-8.890626-2.65625-6.054687-5.621094-11.945312-8.871094-17.652343-1.117188-1.964844-3.226562-3.15625-5.484375-3.15625h-341.871094c-2.257812 0-4.367187 1.191406-5.484375 3.15625-3.25 5.707031-6.214844 11.597656-8.871094 17.652343-1.84375 4.1875 1.246094 8.890626 5.824219 8.890626zm0 0" fill="#5a4650"/><path d="m277.847656 153.394531h-19.425781c-20.503906 0-37.125-16.625-37.125-37.128906s16.621094-37.125 37.125-37.125h19.425781c20.503906 0 37.125 16.621094 37.125 37.125s-16.621094 37.128906-37.125 37.128906zm0 0" fill="#6e5a64"/><path d="m260.898438 116.265625c0-17.003906 11.4375-31.328125 27.039062-35.726563-3.210938-.902343-6.589844-1.398437-10.089844-1.398437h-19.425781c-20.503906 0-37.125 16.621094-37.125 37.125s16.621094 37.125 37.125 37.125h19.425781c3.5 0 6.878906-.492187 10.089844-1.398437-15.601562-4.394532-27.039062-18.71875-27.039062-35.726563zm0 0" fill="#64505a"/><path d="m151.738281 153.394531h-19.425781c-20.503906 0-37.125-16.625-37.125-37.128906s16.621094-37.125 37.125-37.125h19.425781c20.503907 0 37.125 16.621094 37.125 37.125s-16.621093 37.128906-37.125 37.128906zm0 0" fill="#6e5a64"/><path d="m134.785156 116.265625c0-17.003906 11.441406-31.328125 27.039063-35.726563-3.207031-.902343-6.589844-1.398437-10.085938-1.398437h-19.425781c-20.503906 0-37.125 16.621094-37.125 37.125s16.621094 37.125 37.125 37.125h19.425781c3.496094 0 6.878907-.492187 10.085938-1.398437-15.597657-4.394532-27.039063-18.71875-27.039063-35.726563zm0 0" fill="#64505a"/><path d="m273.757812 254.171875h-11.242187c-4.144531 0-7.5-3.359375-7.5-7.5 0-4.144531 3.355469-7.5 7.5-7.5h11.242187c4.140626 0 7.5 3.355469 7.5 7.5 0 4.140625-3.359374 7.5-7.5 7.5zm0 0" fill="#e6646e"/><path d="m147.644531 254.171875h-11.242187c-4.140625 0-7.5-3.359375-7.5-7.5 0-4.144531 3.359375-7.5 7.5-7.5h11.242187c4.144531 0 7.5 3.355469 7.5 7.5 0 4.140625-3.355469 7.5-7.5 7.5zm0 0" fill="#e6646e"/><path d="m225.410156 238.296875c-3.589844-2.066406-8.175781-.828125-10.238281 2.761719-2.074219 3.605468-5.941406 5.84375-10.09375 5.84375-4.148437 0-8.015625-2.238282-10.089844-5.84375-2.0625-3.589844-6.648437-4.828125-10.238281-2.761719-3.589844 2.0625-4.828125 6.648437-2.765625 10.238281 4.742187 8.246094 13.589844 13.367188 23.09375 13.367188 9.507813 0 18.355469-5.121094 23.097656-13.367188 2.0625-3.589844.824219-8.175781-2.765625-10.238281zm0 0"/><path d="m268.136719 206.675781c-4.144531 0-7.5 3.355469-7.5 7.5v11.242188c0 4.140625 3.355469 7.5 7.5 7.5 4.140625 0 7.5-3.359375 7.5-7.5v-11.242188c0-4.144531-3.359375-7.5-7.5-7.5zm0 0"/><path d="m142.023438 206.675781c-4.140626 0-7.5 3.355469-7.5 7.5v11.242188c0 4.140625 3.359374 7.5 7.5 7.5 4.144531 0 7.5-3.359375 7.5-7.5v-11.242188c0-4.144531-3.355469-7.5-7.5-7.5zm0 0"/><path d="m377.054688 249.171875c19.164062-3.898437 33.101562-20.632813 33.101562-40.667969 0-7.808594-2.15625-15.339844-6.25-21.910156-1.085938-17.601562-4.488281-34.878906-10.148438-51.492188.902344-.804687 1.714844-1.726562 2.394532-2.769531 2.566406-3.925781 2.96875-8.832031 1.085937-13.121093-2.738281-6.238282-5.839843-12.410157-9.21875-18.347657-2.4375-4.285156-7.039062-6.945312-12.003906-6.945312h-1.855469c-17.230468-27.539063-41.058594-50.65625-69.175781-67.011719-30.261719-17.601562-64.808594-26.90625-99.90625-26.90625-35.09375 0-69.640625 9.304688-99.902344 26.90625-28.121093 16.355469-51.949219 39.472656-69.175781 67.011719h-1.855469c-4.964843 0-9.566406 2.660156-12.003906 6.945312-3.378906 5.9375-6.480469 12.109375-9.21875 18.347657-1.886719 4.289062-1.480469 9.195312 1.085937 13.121093.679688 1.042969 1.488282 1.964844 2.390626 2.769531-5.660157 16.613282-9.0625 33.894532-10.148438 51.492188-4.09375 6.570312-6.25 14.109375-6.25 21.910156 0 19.734375 14.1875 36.710938 33.097656 40.652344 13.910156 47.570312 47.054688 87.007812 90.414063 109.273438-52.507813 29.367187-85.707031 85.207031-85.707031 146.070312 0 4.140625 3.355468 7.5 7.5 7.5h319.546874c4.144532 0 7.5-3.359375 7.5-7.5 0-60.875-33.195312-116.707031-85.703124-146.070312 43.355468-22.265626 76.496093-61.699219 90.40625-109.257813zm4.125-17.257813c1.996093-10.6875 3.050781-21.703124 3.050781-32.964843 0-.804688-.019531-1.609375-.03125-2.417969h8.101562c1.871094 3.691406 2.859375 7.765625 2.859375 11.972656-.003906 10.132813-5.585937 18.945313-13.980468 23.410156zm-59.320313-108.296874c.398437-2.390626.617187-4.84375.617187-7.351563 0-2.503906-.21875-4.957031-.617187-7.351563h48.109375c.003906 0 .011719.003907.015625.003907s.007813-.003907.015625-.003907h5.34375c2.691406 4.777344 5.1875 9.710938 7.4375 14.703126zm-219.175781-7.351563c0-16.335937 13.292968-29.625 29.628906-29.625h19.425781c16.335938 0 29.625 13.292969 29.625 29.625 0 16.335937-13.289062 29.628906-29.625 29.628906h-19.425781c-16.335938 0-29.628906-13.292969-29.628906-29.628906zm93.0625-7.347656h18.664062c-.394531 2.390625-.613281 4.84375-.613281 7.351562 0 2.503907.21875 4.957031.613281 7.347657h-18.664062c.398437-2.390626.617187-4.84375.617187-7.347657 0-2.507812-.214843-4.960937-.617187-7.351562zm33.050781 7.347656c0-16.335937 13.289063-29.625 29.625-29.625h19.425781c16.335938 0 29.628906 13.292969 29.628906 29.625 0 16.335937-13.292968 29.628906-29.628906 29.628906h-19.425781c-16.335937 0-29.625-13.292969-29.625-29.628906zm-23.71875-101.265625c60.058594 0 116.773437 29.933594 151.097656 78.917969h-39.726562c-7.734375-13.304688-22.136719-22.277344-38.601563-22.277344h-19.425781c-16.46875 0-30.867187 8.972656-38.601563 22.277344h-29.480468c-7.734375-13.304688-22.136719-22.277344-38.601563-22.277344h-19.425781c-16.46875 0-30.871094 8.972656-38.601562 22.277344h-39.730469c34.328125-48.984375 91.042969-78.917969 151.097656-78.917969zm-170.261719 93.917969h53.484375c-.398437 2.390625-.617187 4.84375-.617187 7.351562 0 2.503907.21875 4.957031.617187 7.347657h-60.921875c2.25-4.988282 4.746094-9.925782 7.4375-14.699219zm-19.8125 99.585937c0-4.203125.988282-8.28125 2.859375-11.96875h8.101563c-.011719.804688-.035156 1.613282-.035156 2.414063 0 11.234375 1.050781 22.222656 3.039062 32.886719-8.320312-4.527344-13.964844-13.382813-13.964844-23.332032zm342.167969 288.496094h-304.183594c2.78125-56.304688 36.703125-106.871094 88.136719-130.710938 19.871094 7.621094 41.433594 11.8125 63.953125 11.8125 22.523437 0 44.082031-4.191406 63.957031-11.8125 51.4375 23.839844 85.355469 74.394532 88.136719 130.710938zm-152.09375-133.898438c-90.511719 0-164.148437-73.636718-164.148437-164.152343 0-.800781.019531-1.609375.035156-2.414063h265.644531c4.140625 0 7.5-3.359375 7.5-7.5 0-4.144531-3.359375-7.5-7.5-7.5h-284.929687c1.386718-14.664062 4.539062-29.042968 9.382812-42.917968h62.648438c7.734374 13.304687 22.136718 22.277343 38.601562 22.277343h19.425781c16.464844 0 30.867188-8.972656 38.601563-22.277343h29.480468c7.734376 13.304687 22.136719 22.277343 38.601563 22.277343h19.425781c16.46875 0 30.871094-8.972656 38.601563-22.277343h62.648437c4.839844 13.871093 7.996094 28.253906 9.382813 42.917968h-53.871094c-4.144531 0-7.5 3.355469-7.5 7.5 0 4.140625 3.355469 7.5 7.5 7.5h34.589844c.011719.804688.03125 1.613282.03125 2.414063 0 90.515625-73.636719 164.152343-164.152344 164.152343zm0 0"/></svg>